<?xml version="1.0" encoding="utf-8"?>
<!-- Generator: Adobe Illustrator 23.0.1, SVG Export Plug-In . SVG Version: 6.00 Build 0)  -->
<svg version="1.1" xmlns="http://www.w3.org/2000/svg" xmlns:xlink="http://www.w3.org/1999/xlink" x="0px" y="0px"
	 viewBox="0 0 256 256" style="enable-background:new 0 0 256 256;" xml:space="preserve">
<style type="text/css">
	.st0{display:none;}
	.st1{display:inline;}
	.st2{clip-path:url(#SVGID_2_);}
	.st3{clip-path:url(#SVGID_4_);fill:#454545;}
	.st4{display:inline;fill:#414042;}
	.st5{fill:#FFFFFF;}
</style>
<g id="Layer_1" class="st0">
	<g class="st1">
		<defs>
			<path id="SVGID_1_" d="M-311.51,256h256V0h-256V256z M-218.86,191.88h-26.55v-85.34h26.55V191.88z M-232.12,94.88
				c-8.52,0-15.39-6.9-15.39-15.38c0-8.49,6.87-15.38,15.39-15.38c8.48,0,15.37,6.9,15.37,15.38
				C-216.75,87.98-223.64,94.88-232.12,94.88z M-119.51,191.88h-26.52v-41.5c0-9.9-0.18-22.62-13.78-22.62
				c-13.8,0-15.9,10.78-15.9,21.92v42.21h-26.5v-85.34h25.42v11.67h0.37c3.54-6.71,12.19-13.79,25.1-13.79
				c26.86,0,31.82,17.67,31.82,40.66V191.88z"/>
		</defs>
		<clipPath id="SVGID_2_">
			<use xlink:href="#SVGID_1_"  style="overflow:visible;"/>
		</clipPath>
		<g class="st2">
			<defs>
				<rect id="SVGID_3_" x="-479.51" y="-7816" width="11520" height="8192"/>
			</defs>
			<clipPath id="SVGID_4_">
				<use xlink:href="#SVGID_3_"  style="overflow:visible;"/>
			</clipPath>
			<rect x="-351.51" y="-40" class="st3" width="336" height="336"/>
		</g>
	</g>
	<path class="st4" d="M0,0v256h256V0H0z M188.66,191.88H67.34v-16.63c0-23.69,19.2-42.89,42.89-42.89H128
		c-18.85,0-34.12-15.28-34.12-34.12c0-18.85,15.28-34.12,34.12-34.12s34.12,15.28,34.12,34.12c0,18.85-15.28,34.12-34.12,34.12
		h17.77c23.69,0,42.89,19.2,42.89,42.89V191.88z"/>
</g>
<g id="Layer_2">
	<g>
		<path class="st5" d="M195.2,195.2H60.8V60.8h52.16v-40H40.8c-11.05,0-20,8.95-20,20V215.2c0,11.05,8.95,20,20,20H215.2
			c11.05,0,20-8.95,20-20v-72.16h-40V195.2z"/>
		<polygon class="st5" points="128,20.8 128,60.8 166.92,60.8 98.81,128.9 127.1,157.19 195.2,89.08 195.2,128 235.2,128 
			235.2,20.8 		"/>
	</g>
</g>
</svg>
