<?xml version="1.0" encoding="utf-8"?>
<!-- Generator: Adobe Illustrator 23.0.1, SVG Export Plug-In . SVG Version: 6.00 Build 0)  -->
<svg version="1.1" id="Layer_1" xmlns="http://www.w3.org/2000/svg" xmlns:xlink="http://www.w3.org/1999/xlink" x="0px" y="0px"
	 viewBox="0 0 32 32" style="enable-background:new 0 0 32 32;" xml:space="preserve">
<style type="text/css">
	.st0{clip-path:url(#SVGID_2_);}
	.st1{clip-path:url(#SVGID_4_);fill:#454545;}
</style>
<g>
	<defs>
		<path id="SVGID_1_" d="M0,32h32V0H0V32z M11.58,23.99H8.26V13.32h3.32V23.99z M9.92,11.86C8.86,11.86,8,11,8,9.94
			c0-1.06,0.86-1.92,1.92-1.92c1.06,0,1.92,0.86,1.92,1.92C11.85,11,10.98,11.86,9.92,11.86z M24,23.99h-3.32V18.8
			c0-1.24-0.02-2.83-1.72-2.83c-1.73,0-1.99,1.35-1.99,2.74v5.28h-3.31V13.32h3.18v1.46h0.05c0.44-0.84,1.52-1.72,3.14-1.72
			c3.36,0,3.98,2.21,3.98,5.08V23.99z"/>
	</defs>
	<clipPath id="SVGID_2_">
		<use xlink:href="#SVGID_1_"  style="overflow:visible;"/>
	</clipPath>
	<g class="st0">
		<defs>
			<rect id="SVGID_3_" x="-21" y="-977" width="1440" height="2161"/>
		</defs>
		<clipPath id="SVGID_4_">
			<use xlink:href="#SVGID_3_"  style="overflow:visible;"/>
		</clipPath>
		<rect x="-5" y="-5" class="st1" width="42" height="42"/>
	</g>
</g>
</svg>
