<?xml version="1.0" encoding="utf-8"?>
<!-- Generator: Adobe Illustrator 24.0.2, SVG Export Plug-In . SVG Version: 6.00 Build 0)  -->
<svg version="1.1" id="Layer_1" xmlns:serif="http://www.serif.com/"
	 xmlns="http://www.w3.org/2000/svg" xmlns:xlink="http://www.w3.org/1999/xlink" x="0px" y="0px" viewBox="0 0 522.2 522.2"
	 style="enable-background:new 0 0 522.2 522.2;" xml:space="preserve">
<style type="text/css">
	.st0{fill:#030404;}
</style>
<g transform="matrix(1.01619,0,0,1.01619,44,43.8384)">
	<path d="M213.7-43.1c-69.8,0-78.5,0.3-105.9,1.5c-27.4,1.2-46,5.6-62.4,11.9C28.4-23.1,14.1-14.3-0.2,0s-23.1,28.6-29.6,45.5
		c-6.4,16.3-10.7,35-11.9,62.4c-1.3,27.4-1.5,36.2-1.5,105.9c0,69.8,0.3,78.5,1.5,105.9c1.2,27.4,5.6,46,11.9,62.4
		c6.6,16.9,15.4,31.2,29.6,45.5c14.3,14.3,28.6,23.1,45.5,29.6c16.3,6.4,35,10.7,62.4,11.9c27.4,1.3,36.2,1.5,105.9,1.5
		c69.8,0,78.5-0.3,105.9-1.5c27.4-1.2,46-5.6,62.4-11.9c16.9-6.6,31.2-15.4,45.5-29.6c14.3-14.3,23.1-28.6,29.6-45.5
		c6.4-16.3,10.7-35,11.9-62.4c1.3-27.4,1.5-36.2,1.5-105.9c0-69.8-0.3-78.5-1.5-105.9c-1.2-27.4-5.6-46-11.9-62.4
		c-6.6-16.9-15.4-31.2-29.6-45.5c-14.3-14.3-28.6-23.1-45.5-29.6c-16.3-6.4-35-10.7-62.4-11.9C292.2-42.8,283.4-43.1,213.7-43.1z
		 M213.7,3.2c68.6,0,76.7,0.3,103.8,1.5c25.1,1.1,38.7,5.3,47.7,8.8c12,4.7,20.6,10.2,29.5,19.2c9,9,14.6,17.6,19.2,29.5
		c3.5,9.1,7.7,22.7,8.8,47.7c1.2,27.1,1.5,35.2,1.5,103.8c0,68.6-0.3,76.7-1.5,103.8c-1.1,25.1-5.3,38.7-8.8,47.7
		c-4.7,12-10.2,20.6-19.2,29.5c-9,9-17.6,14.6-29.5,19.2c-9.1,3.5-22.7,7.7-47.7,8.8c-27.1,1.2-35.2,1.5-103.8,1.5
		c-68.6,0-76.7-0.3-103.8-1.5c-25.1-1.1-38.7-5.3-47.7-8.8c-12-4.7-20.6-10.2-29.5-19.2c-9-9-14.6-17.6-19.2-29.5
		c-3.5-9.1-7.7-22.7-8.8-47.7C3.3,290.6,3,282.4,3,213.8c0-68.6,0.3-76.7,1.5-103.8c1.1-25.1,5.3-38.7,8.8-47.7
		c4.7-12,10.2-20.6,19.2-29.5c9-9,17.6-14.6,29.5-19.2c9.1-3.5,22.7-7.7,47.7-8.8C136.9,3.4,145,3.2,213.7,3.2z"/>
	<path class="st0" d="M213.7,299.5c-47.3,0-85.7-38.3-85.7-85.7c0-47.3,38.3-85.7,85.7-85.7c47.3,0,85.7,38.3,85.7,85.7
		C299.3,261.1,261,299.5,213.7,299.5z M213.7,81.9c-72.9,0-132,59.1-132,132c0,72.9,59.1,132,132,132c72.9,0,132-59.1,132-132
		C345.6,140.9,286.5,81.9,213.7,81.9z"/>
	<path class="st0" d="M381.7,76.7c0,17-13.8,30.8-30.8,30.8c-17,0-30.8-13.8-30.8-30.8s13.8-30.8,30.8-30.8
		C367.9,45.8,381.7,59.6,381.7,76.7z"/>
</g>
</svg>
